%TF.GenerationSoftware,KiCad,Pcbnew,(5.0.0)*%
%TF.CreationDate,2019-10-30T12:42:45-05:00*%
%TF.ProjectId,Light-Up Hat,4C696768742D5570204861742E6B6963,rev?*%
%TF.SameCoordinates,Original*%
%TF.FileFunction,Legend,Top*%
%TF.FilePolarity,Positive*%
%FSLAX46Y46*%
G04 Gerber Fmt 4.6, Leading zero omitted, Abs format (unit mm)*
G04 Created by KiCad (PCBNEW (5.0.0)) date 10/30/19 12:42:45*
%MOMM*%
%LPD*%
G01*
G04 APERTURE LIST*
%ADD10C,0.200000*%
%ADD11C,0.120000*%
%ADD12C,0.150000*%
G04 APERTURE END LIST*
D10*
X124460000Y-111506000D02*
X124460000Y-91440000D01*
X164338000Y-111506000D02*
X124460000Y-111506000D01*
X164338000Y-91440000D02*
X164338000Y-111506000D01*
X124460000Y-91440000D02*
X164338000Y-91440000D01*
D11*
X135584000Y-94229422D02*
X135584000Y-94746578D01*
X134164000Y-94229422D02*
X134164000Y-94746578D01*
X137926578Y-96572000D02*
X137409422Y-96572000D01*
X137926578Y-97992000D02*
X137409422Y-97992000D01*
X144832000Y-94238578D02*
X144832000Y-93721422D01*
X146252000Y-94238578D02*
X146252000Y-93721422D01*
X140658000Y-101600462D02*
G75*
G03X135108000Y-100055170I-2990000J462D01*
G01*
X140658000Y-101599538D02*
G75*
G02X135108000Y-103144830I-2990000J-462D01*
G01*
X140168000Y-101600000D02*
G75*
G03X140168000Y-101600000I-2500000J0D01*
G01*
X135108000Y-100055000D02*
X135108000Y-103145000D01*
X140950000Y-100055000D02*
X140950000Y-103145000D01*
X146010000Y-101600000D02*
G75*
G03X146010000Y-101600000I-2500000J0D01*
G01*
X146500000Y-101599538D02*
G75*
G02X140950000Y-103144830I-2990000J-462D01*
G01*
X146500000Y-101600462D02*
G75*
G03X140950000Y-100055170I-2990000J462D01*
G01*
X152342000Y-101600462D02*
G75*
G03X146792000Y-100055170I-2990000J462D01*
G01*
X152342000Y-101599538D02*
G75*
G02X146792000Y-103144830I-2990000J-462D01*
G01*
X151852000Y-101600000D02*
G75*
G03X151852000Y-101600000I-2500000J0D01*
G01*
X146792000Y-100055000D02*
X146792000Y-103145000D01*
X152634000Y-100055000D02*
X152634000Y-103145000D01*
X157694000Y-101600000D02*
G75*
G03X157694000Y-101600000I-2500000J0D01*
G01*
X158184000Y-101599538D02*
G75*
G02X152634000Y-103144830I-2990000J-462D01*
G01*
X158184000Y-101600462D02*
G75*
G03X152634000Y-100055170I-2990000J462D01*
G01*
X164026000Y-101600462D02*
G75*
G03X158476000Y-100055170I-2990000J462D01*
G01*
X164026000Y-101599538D02*
G75*
G02X158476000Y-103144830I-2990000J-462D01*
G01*
X163536000Y-101600000D02*
G75*
G03X163536000Y-101600000I-2500000J0D01*
G01*
X158476000Y-100055000D02*
X158476000Y-103145000D01*
X163128000Y-95564000D02*
X163128000Y-92904000D01*
X155448000Y-95564000D02*
X163128000Y-95564000D01*
X155448000Y-92904000D02*
X163128000Y-92904000D01*
X155448000Y-95564000D02*
X155448000Y-92904000D01*
X154178000Y-95564000D02*
X152848000Y-95564000D01*
X152848000Y-95564000D02*
X152848000Y-94234000D01*
X146562578Y-97484000D02*
X146045422Y-97484000D01*
X146562578Y-96064000D02*
X146045422Y-96064000D01*
D12*
X125476000Y-101600000D02*
X125476000Y-105664000D01*
X125476000Y-105664000D02*
X126238000Y-105664000D01*
X128270000Y-105664000D02*
X130810000Y-105664000D01*
X132842000Y-105664000D02*
X133604000Y-105664000D01*
X133604000Y-105664000D02*
X133604000Y-101600000D01*
X133604000Y-101600000D02*
X133604000Y-97536000D01*
X133604000Y-97536000D02*
X132842000Y-97536000D01*
X130810000Y-97536000D02*
X128270000Y-97536000D01*
X125476000Y-101600000D02*
X125476000Y-97536000D01*
X125476000Y-97536000D02*
X126238000Y-97536000D01*
D11*
X141594000Y-96606000D02*
X143394000Y-96606000D01*
X143394000Y-93386000D02*
X140944000Y-93386000D01*
X150620000Y-97338000D02*
X150620000Y-96408000D01*
X150620000Y-94178000D02*
X150620000Y-95108000D01*
X150620000Y-94178000D02*
X148460000Y-94178000D01*
X150620000Y-97338000D02*
X149160000Y-97338000D01*
X139248000Y-93728000D02*
X139248000Y-95188000D01*
X136088000Y-93728000D02*
X136088000Y-95888000D01*
X136088000Y-93728000D02*
X137018000Y-93728000D01*
X139248000Y-93728000D02*
X138318000Y-93728000D01*
D12*
X143740285Y-106100571D02*
X143883142Y-106148190D01*
X143930761Y-106195809D01*
X143978380Y-106291047D01*
X143978380Y-106433904D01*
X143930761Y-106529142D01*
X143883142Y-106576761D01*
X143787904Y-106624380D01*
X143406952Y-106624380D01*
X143406952Y-105624380D01*
X143740285Y-105624380D01*
X143835523Y-105672000D01*
X143883142Y-105719619D01*
X143930761Y-105814857D01*
X143930761Y-105910095D01*
X143883142Y-106005333D01*
X143835523Y-106052952D01*
X143740285Y-106100571D01*
X143406952Y-106100571D01*
X144264095Y-105624380D02*
X144835523Y-105624380D01*
X144549809Y-106624380D02*
X144549809Y-105624380D01*
X145692666Y-106624380D02*
X145121238Y-106624380D01*
X145406952Y-106624380D02*
X145406952Y-105624380D01*
X145311714Y-105767238D01*
X145216476Y-105862476D01*
X145121238Y-105910095D01*
X133707142Y-94654666D02*
X133754761Y-94702285D01*
X133802380Y-94845142D01*
X133802380Y-94940380D01*
X133754761Y-95083238D01*
X133659523Y-95178476D01*
X133564285Y-95226095D01*
X133373809Y-95273714D01*
X133230952Y-95273714D01*
X133040476Y-95226095D01*
X132945238Y-95178476D01*
X132850000Y-95083238D01*
X132802380Y-94940380D01*
X132802380Y-94845142D01*
X132850000Y-94702285D01*
X132897619Y-94654666D01*
X133802380Y-93702285D02*
X133802380Y-94273714D01*
X133802380Y-93988000D02*
X132802380Y-93988000D01*
X132945238Y-94083238D01*
X133040476Y-94178476D01*
X133088095Y-94273714D01*
X134707333Y-97639142D02*
X134659714Y-97686761D01*
X134516857Y-97734380D01*
X134421619Y-97734380D01*
X134278761Y-97686761D01*
X134183523Y-97591523D01*
X134135904Y-97496285D01*
X134088285Y-97305809D01*
X134088285Y-97162952D01*
X134135904Y-96972476D01*
X134183523Y-96877238D01*
X134278761Y-96782000D01*
X134421619Y-96734380D01*
X134516857Y-96734380D01*
X134659714Y-96782000D01*
X134707333Y-96829619D01*
X135088285Y-96829619D02*
X135135904Y-96782000D01*
X135231142Y-96734380D01*
X135469238Y-96734380D01*
X135564476Y-96782000D01*
X135612095Y-96829619D01*
X135659714Y-96924857D01*
X135659714Y-97020095D01*
X135612095Y-97162952D01*
X135040666Y-97734380D01*
X135659714Y-97734380D01*
X147677142Y-94146666D02*
X147724761Y-94194285D01*
X147772380Y-94337142D01*
X147772380Y-94432380D01*
X147724761Y-94575238D01*
X147629523Y-94670476D01*
X147534285Y-94718095D01*
X147343809Y-94765714D01*
X147200952Y-94765714D01*
X147010476Y-94718095D01*
X146915238Y-94670476D01*
X146820000Y-94575238D01*
X146772380Y-94432380D01*
X146772380Y-94337142D01*
X146820000Y-94194285D01*
X146867619Y-94146666D01*
X146772380Y-93813333D02*
X146772380Y-93194285D01*
X147153333Y-93527619D01*
X147153333Y-93384761D01*
X147200952Y-93289523D01*
X147248571Y-93241904D01*
X147343809Y-93194285D01*
X147581904Y-93194285D01*
X147677142Y-93241904D01*
X147724761Y-93289523D01*
X147772380Y-93384761D01*
X147772380Y-93670476D01*
X147724761Y-93765714D01*
X147677142Y-93813333D01*
X136929904Y-100378380D02*
X136929904Y-99378380D01*
X137168000Y-99378380D01*
X137310857Y-99426000D01*
X137406095Y-99521238D01*
X137453714Y-99616476D01*
X137501333Y-99806952D01*
X137501333Y-99949809D01*
X137453714Y-100140285D01*
X137406095Y-100235523D01*
X137310857Y-100330761D01*
X137168000Y-100378380D01*
X136929904Y-100378380D01*
X138453714Y-100378380D02*
X137882285Y-100378380D01*
X138168000Y-100378380D02*
X138168000Y-99378380D01*
X138072761Y-99521238D01*
X137977523Y-99616476D01*
X137882285Y-99664095D01*
X142771904Y-100378380D02*
X142771904Y-99378380D01*
X143010000Y-99378380D01*
X143152857Y-99426000D01*
X143248095Y-99521238D01*
X143295714Y-99616476D01*
X143343333Y-99806952D01*
X143343333Y-99949809D01*
X143295714Y-100140285D01*
X143248095Y-100235523D01*
X143152857Y-100330761D01*
X143010000Y-100378380D01*
X142771904Y-100378380D01*
X143724285Y-99473619D02*
X143771904Y-99426000D01*
X143867142Y-99378380D01*
X144105238Y-99378380D01*
X144200476Y-99426000D01*
X144248095Y-99473619D01*
X144295714Y-99568857D01*
X144295714Y-99664095D01*
X144248095Y-99806952D01*
X143676666Y-100378380D01*
X144295714Y-100378380D01*
X148613904Y-100378380D02*
X148613904Y-99378380D01*
X148852000Y-99378380D01*
X148994857Y-99426000D01*
X149090095Y-99521238D01*
X149137714Y-99616476D01*
X149185333Y-99806952D01*
X149185333Y-99949809D01*
X149137714Y-100140285D01*
X149090095Y-100235523D01*
X148994857Y-100330761D01*
X148852000Y-100378380D01*
X148613904Y-100378380D01*
X149518666Y-99378380D02*
X150137714Y-99378380D01*
X149804380Y-99759333D01*
X149947238Y-99759333D01*
X150042476Y-99806952D01*
X150090095Y-99854571D01*
X150137714Y-99949809D01*
X150137714Y-100187904D01*
X150090095Y-100283142D01*
X150042476Y-100330761D01*
X149947238Y-100378380D01*
X149661523Y-100378380D01*
X149566285Y-100330761D01*
X149518666Y-100283142D01*
X154455904Y-100378380D02*
X154455904Y-99378380D01*
X154694000Y-99378380D01*
X154836857Y-99426000D01*
X154932095Y-99521238D01*
X154979714Y-99616476D01*
X155027333Y-99806952D01*
X155027333Y-99949809D01*
X154979714Y-100140285D01*
X154932095Y-100235523D01*
X154836857Y-100330761D01*
X154694000Y-100378380D01*
X154455904Y-100378380D01*
X155884476Y-99711714D02*
X155884476Y-100378380D01*
X155646380Y-99330761D02*
X155408285Y-100045047D01*
X156027333Y-100045047D01*
X160297904Y-100378380D02*
X160297904Y-99378380D01*
X160536000Y-99378380D01*
X160678857Y-99426000D01*
X160774095Y-99521238D01*
X160821714Y-99616476D01*
X160869333Y-99806952D01*
X160869333Y-99949809D01*
X160821714Y-100140285D01*
X160774095Y-100235523D01*
X160678857Y-100330761D01*
X160536000Y-100378380D01*
X160297904Y-100378380D01*
X161774095Y-99378380D02*
X161297904Y-99378380D01*
X161250285Y-99854571D01*
X161297904Y-99806952D01*
X161393142Y-99759333D01*
X161631238Y-99759333D01*
X161726476Y-99806952D01*
X161774095Y-99854571D01*
X161821714Y-99949809D01*
X161821714Y-100187904D01*
X161774095Y-100283142D01*
X161726476Y-100330761D01*
X161631238Y-100378380D01*
X161393142Y-100378380D01*
X161297904Y-100330761D01*
X161250285Y-100283142D01*
X151300380Y-94567333D02*
X152014666Y-94567333D01*
X152157523Y-94614952D01*
X152252761Y-94710190D01*
X152300380Y-94853047D01*
X152300380Y-94948285D01*
X152300380Y-93567333D02*
X152300380Y-94138761D01*
X152300380Y-93853047D02*
X151300380Y-93853047D01*
X151443238Y-93948285D01*
X151538476Y-94043523D01*
X151586095Y-94138761D01*
X146137333Y-98876380D02*
X145804000Y-98400190D01*
X145565904Y-98876380D02*
X145565904Y-97876380D01*
X145946857Y-97876380D01*
X146042095Y-97924000D01*
X146089714Y-97971619D01*
X146137333Y-98066857D01*
X146137333Y-98209714D01*
X146089714Y-98304952D01*
X146042095Y-98352571D01*
X145946857Y-98400190D01*
X145565904Y-98400190D01*
X147089714Y-98876380D02*
X146518285Y-98876380D01*
X146804000Y-98876380D02*
X146804000Y-97876380D01*
X146708761Y-98019238D01*
X146613523Y-98114476D01*
X146518285Y-98162095D01*
X129944761Y-102933333D02*
X129992380Y-102790476D01*
X129992380Y-102552380D01*
X129944761Y-102457142D01*
X129897142Y-102409523D01*
X129801904Y-102361904D01*
X129706666Y-102361904D01*
X129611428Y-102409523D01*
X129563809Y-102457142D01*
X129516190Y-102552380D01*
X129468571Y-102742857D01*
X129420952Y-102838095D01*
X129373333Y-102885714D01*
X129278095Y-102933333D01*
X129182857Y-102933333D01*
X129087619Y-102885714D01*
X129040000Y-102838095D01*
X128992380Y-102742857D01*
X128992380Y-102504761D01*
X129040000Y-102361904D01*
X128992380Y-102028571D02*
X129992380Y-101790476D01*
X129278095Y-101600000D01*
X129992380Y-101409523D01*
X128992380Y-101171428D01*
X129992380Y-100266666D02*
X129992380Y-100838095D01*
X129992380Y-100552380D02*
X128992380Y-100552380D01*
X129135238Y-100647619D01*
X129230476Y-100742857D01*
X129278095Y-100838095D01*
X141732095Y-96988380D02*
X141732095Y-97797904D01*
X141779714Y-97893142D01*
X141827333Y-97940761D01*
X141922571Y-97988380D01*
X142113047Y-97988380D01*
X142208285Y-97940761D01*
X142255904Y-97893142D01*
X142303523Y-97797904D01*
X142303523Y-96988380D01*
X142732095Y-97083619D02*
X142779714Y-97036000D01*
X142874952Y-96988380D01*
X143113047Y-96988380D01*
X143208285Y-97036000D01*
X143255904Y-97083619D01*
X143303523Y-97178857D01*
X143303523Y-97274095D01*
X143255904Y-97416952D01*
X142684476Y-97988380D01*
X143303523Y-97988380D01*
X149764761Y-93805619D02*
X149669523Y-93758000D01*
X149574285Y-93662761D01*
X149431428Y-93519904D01*
X149336190Y-93472285D01*
X149240952Y-93472285D01*
X149288571Y-93710380D02*
X149193333Y-93662761D01*
X149098095Y-93567523D01*
X149050476Y-93377047D01*
X149050476Y-93043714D01*
X149098095Y-92853238D01*
X149193333Y-92758000D01*
X149288571Y-92710380D01*
X149479047Y-92710380D01*
X149574285Y-92758000D01*
X149669523Y-92853238D01*
X149717142Y-93043714D01*
X149717142Y-93377047D01*
X149669523Y-93567523D01*
X149574285Y-93662761D01*
X149479047Y-93710380D01*
X149288571Y-93710380D01*
X150669523Y-93710380D02*
X150098095Y-93710380D01*
X150383809Y-93710380D02*
X150383809Y-92710380D01*
X150288571Y-92853238D01*
X150193333Y-92948476D01*
X150098095Y-92996095D01*
X139660380Y-95249904D02*
X140469904Y-95249904D01*
X140565142Y-95202285D01*
X140612761Y-95154666D01*
X140660380Y-95059428D01*
X140660380Y-94868952D01*
X140612761Y-94773714D01*
X140565142Y-94726095D01*
X140469904Y-94678476D01*
X139660380Y-94678476D01*
X140660380Y-93678476D02*
X140660380Y-94249904D01*
X140660380Y-93964190D02*
X139660380Y-93964190D01*
X139803238Y-94059428D01*
X139898476Y-94154666D01*
X139946095Y-94249904D01*
M02*
