%TF.GenerationSoftware,KiCad,Pcbnew,(5.0.0)*%
%TF.CreationDate,2019-11-18T15:30:05-06:00*%
%TF.ProjectId,Light-Up Hat,4C696768742D5570204861742E6B6963,rev?*%
%TF.SameCoordinates,Original*%
%TF.FileFunction,Paste,Top*%
%TF.FilePolarity,Positive*%
%FSLAX46Y46*%
G04 Gerber Fmt 4.6, Leading zero omitted, Abs format (unit mm)*
G04 Created by KiCad (PCBNEW (5.0.0)) date 11/18/19 15:30:05*
%MOMM*%
%LPD*%
G01*
G04 APERTURE LIST*
%ADD10C,0.200000*%
%ADD11C,0.150000*%
%ADD12C,0.975000*%
%ADD13R,1.060000X0.650000*%
%ADD14R,0.800000X0.900000*%
G04 APERTURE END LIST*
D10*
X124460000Y-111506000D02*
X124460000Y-91440000D01*
X164338000Y-111506000D02*
X124460000Y-111506000D01*
X164338000Y-91440000D02*
X164338000Y-111506000D01*
X124460000Y-91440000D02*
X164338000Y-91440000D01*
D11*
G36*
X135354142Y-93064174D02*
X135377803Y-93067684D01*
X135401007Y-93073496D01*
X135423529Y-93081554D01*
X135445153Y-93091782D01*
X135465670Y-93104079D01*
X135484883Y-93118329D01*
X135502607Y-93134393D01*
X135518671Y-93152117D01*
X135532921Y-93171330D01*
X135545218Y-93191847D01*
X135555446Y-93213471D01*
X135563504Y-93235993D01*
X135569316Y-93259197D01*
X135572826Y-93282858D01*
X135574000Y-93306750D01*
X135574000Y-93794250D01*
X135572826Y-93818142D01*
X135569316Y-93841803D01*
X135563504Y-93865007D01*
X135555446Y-93887529D01*
X135545218Y-93909153D01*
X135532921Y-93929670D01*
X135518671Y-93948883D01*
X135502607Y-93966607D01*
X135484883Y-93982671D01*
X135465670Y-93996921D01*
X135445153Y-94009218D01*
X135423529Y-94019446D01*
X135401007Y-94027504D01*
X135377803Y-94033316D01*
X135354142Y-94036826D01*
X135330250Y-94038000D01*
X134417750Y-94038000D01*
X134393858Y-94036826D01*
X134370197Y-94033316D01*
X134346993Y-94027504D01*
X134324471Y-94019446D01*
X134302847Y-94009218D01*
X134282330Y-93996921D01*
X134263117Y-93982671D01*
X134245393Y-93966607D01*
X134229329Y-93948883D01*
X134215079Y-93929670D01*
X134202782Y-93909153D01*
X134192554Y-93887529D01*
X134184496Y-93865007D01*
X134178684Y-93841803D01*
X134175174Y-93818142D01*
X134174000Y-93794250D01*
X134174000Y-93306750D01*
X134175174Y-93282858D01*
X134178684Y-93259197D01*
X134184496Y-93235993D01*
X134192554Y-93213471D01*
X134202782Y-93191847D01*
X134215079Y-93171330D01*
X134229329Y-93152117D01*
X134245393Y-93134393D01*
X134263117Y-93118329D01*
X134282330Y-93104079D01*
X134302847Y-93091782D01*
X134324471Y-93081554D01*
X134346993Y-93073496D01*
X134370197Y-93067684D01*
X134393858Y-93064174D01*
X134417750Y-93063000D01*
X135330250Y-93063000D01*
X135354142Y-93064174D01*
X135354142Y-93064174D01*
G37*
D12*
X134874000Y-93550500D03*
D11*
G36*
X135354142Y-94939174D02*
X135377803Y-94942684D01*
X135401007Y-94948496D01*
X135423529Y-94956554D01*
X135445153Y-94966782D01*
X135465670Y-94979079D01*
X135484883Y-94993329D01*
X135502607Y-95009393D01*
X135518671Y-95027117D01*
X135532921Y-95046330D01*
X135545218Y-95066847D01*
X135555446Y-95088471D01*
X135563504Y-95110993D01*
X135569316Y-95134197D01*
X135572826Y-95157858D01*
X135574000Y-95181750D01*
X135574000Y-95669250D01*
X135572826Y-95693142D01*
X135569316Y-95716803D01*
X135563504Y-95740007D01*
X135555446Y-95762529D01*
X135545218Y-95784153D01*
X135532921Y-95804670D01*
X135518671Y-95823883D01*
X135502607Y-95841607D01*
X135484883Y-95857671D01*
X135465670Y-95871921D01*
X135445153Y-95884218D01*
X135423529Y-95894446D01*
X135401007Y-95902504D01*
X135377803Y-95908316D01*
X135354142Y-95911826D01*
X135330250Y-95913000D01*
X134417750Y-95913000D01*
X134393858Y-95911826D01*
X134370197Y-95908316D01*
X134346993Y-95902504D01*
X134324471Y-95894446D01*
X134302847Y-95884218D01*
X134282330Y-95871921D01*
X134263117Y-95857671D01*
X134245393Y-95841607D01*
X134229329Y-95823883D01*
X134215079Y-95804670D01*
X134202782Y-95784153D01*
X134192554Y-95762529D01*
X134184496Y-95740007D01*
X134178684Y-95716803D01*
X134175174Y-95693142D01*
X134174000Y-95669250D01*
X134174000Y-95181750D01*
X134175174Y-95157858D01*
X134178684Y-95134197D01*
X134184496Y-95110993D01*
X134192554Y-95088471D01*
X134202782Y-95066847D01*
X134215079Y-95046330D01*
X134229329Y-95027117D01*
X134245393Y-95009393D01*
X134263117Y-94993329D01*
X134282330Y-94979079D01*
X134302847Y-94966782D01*
X134324471Y-94956554D01*
X134346993Y-94948496D01*
X134370197Y-94942684D01*
X134393858Y-94939174D01*
X134417750Y-94938000D01*
X135330250Y-94938000D01*
X135354142Y-94939174D01*
X135354142Y-94939174D01*
G37*
D12*
X134874000Y-95425500D03*
D11*
G36*
X136998142Y-96583174D02*
X137021803Y-96586684D01*
X137045007Y-96592496D01*
X137067529Y-96600554D01*
X137089153Y-96610782D01*
X137109670Y-96623079D01*
X137128883Y-96637329D01*
X137146607Y-96653393D01*
X137162671Y-96671117D01*
X137176921Y-96690330D01*
X137189218Y-96710847D01*
X137199446Y-96732471D01*
X137207504Y-96754993D01*
X137213316Y-96778197D01*
X137216826Y-96801858D01*
X137218000Y-96825750D01*
X137218000Y-97738250D01*
X137216826Y-97762142D01*
X137213316Y-97785803D01*
X137207504Y-97809007D01*
X137199446Y-97831529D01*
X137189218Y-97853153D01*
X137176921Y-97873670D01*
X137162671Y-97892883D01*
X137146607Y-97910607D01*
X137128883Y-97926671D01*
X137109670Y-97940921D01*
X137089153Y-97953218D01*
X137067529Y-97963446D01*
X137045007Y-97971504D01*
X137021803Y-97977316D01*
X136998142Y-97980826D01*
X136974250Y-97982000D01*
X136486750Y-97982000D01*
X136462858Y-97980826D01*
X136439197Y-97977316D01*
X136415993Y-97971504D01*
X136393471Y-97963446D01*
X136371847Y-97953218D01*
X136351330Y-97940921D01*
X136332117Y-97926671D01*
X136314393Y-97910607D01*
X136298329Y-97892883D01*
X136284079Y-97873670D01*
X136271782Y-97853153D01*
X136261554Y-97831529D01*
X136253496Y-97809007D01*
X136247684Y-97785803D01*
X136244174Y-97762142D01*
X136243000Y-97738250D01*
X136243000Y-96825750D01*
X136244174Y-96801858D01*
X136247684Y-96778197D01*
X136253496Y-96754993D01*
X136261554Y-96732471D01*
X136271782Y-96710847D01*
X136284079Y-96690330D01*
X136298329Y-96671117D01*
X136314393Y-96653393D01*
X136332117Y-96637329D01*
X136351330Y-96623079D01*
X136371847Y-96610782D01*
X136393471Y-96600554D01*
X136415993Y-96592496D01*
X136439197Y-96586684D01*
X136462858Y-96583174D01*
X136486750Y-96582000D01*
X136974250Y-96582000D01*
X136998142Y-96583174D01*
X136998142Y-96583174D01*
G37*
D12*
X136730500Y-97282000D03*
D11*
G36*
X138873142Y-96583174D02*
X138896803Y-96586684D01*
X138920007Y-96592496D01*
X138942529Y-96600554D01*
X138964153Y-96610782D01*
X138984670Y-96623079D01*
X139003883Y-96637329D01*
X139021607Y-96653393D01*
X139037671Y-96671117D01*
X139051921Y-96690330D01*
X139064218Y-96710847D01*
X139074446Y-96732471D01*
X139082504Y-96754993D01*
X139088316Y-96778197D01*
X139091826Y-96801858D01*
X139093000Y-96825750D01*
X139093000Y-97738250D01*
X139091826Y-97762142D01*
X139088316Y-97785803D01*
X139082504Y-97809007D01*
X139074446Y-97831529D01*
X139064218Y-97853153D01*
X139051921Y-97873670D01*
X139037671Y-97892883D01*
X139021607Y-97910607D01*
X139003883Y-97926671D01*
X138984670Y-97940921D01*
X138964153Y-97953218D01*
X138942529Y-97963446D01*
X138920007Y-97971504D01*
X138896803Y-97977316D01*
X138873142Y-97980826D01*
X138849250Y-97982000D01*
X138361750Y-97982000D01*
X138337858Y-97980826D01*
X138314197Y-97977316D01*
X138290993Y-97971504D01*
X138268471Y-97963446D01*
X138246847Y-97953218D01*
X138226330Y-97940921D01*
X138207117Y-97926671D01*
X138189393Y-97910607D01*
X138173329Y-97892883D01*
X138159079Y-97873670D01*
X138146782Y-97853153D01*
X138136554Y-97831529D01*
X138128496Y-97809007D01*
X138122684Y-97785803D01*
X138119174Y-97762142D01*
X138118000Y-97738250D01*
X138118000Y-96825750D01*
X138119174Y-96801858D01*
X138122684Y-96778197D01*
X138128496Y-96754993D01*
X138136554Y-96732471D01*
X138146782Y-96710847D01*
X138159079Y-96690330D01*
X138173329Y-96671117D01*
X138189393Y-96653393D01*
X138207117Y-96637329D01*
X138226330Y-96623079D01*
X138246847Y-96610782D01*
X138268471Y-96600554D01*
X138290993Y-96592496D01*
X138314197Y-96586684D01*
X138337858Y-96583174D01*
X138361750Y-96582000D01*
X138849250Y-96582000D01*
X138873142Y-96583174D01*
X138873142Y-96583174D01*
G37*
D12*
X138605500Y-97282000D03*
D11*
G36*
X146022142Y-94431174D02*
X146045803Y-94434684D01*
X146069007Y-94440496D01*
X146091529Y-94448554D01*
X146113153Y-94458782D01*
X146133670Y-94471079D01*
X146152883Y-94485329D01*
X146170607Y-94501393D01*
X146186671Y-94519117D01*
X146200921Y-94538330D01*
X146213218Y-94558847D01*
X146223446Y-94580471D01*
X146231504Y-94602993D01*
X146237316Y-94626197D01*
X146240826Y-94649858D01*
X146242000Y-94673750D01*
X146242000Y-95161250D01*
X146240826Y-95185142D01*
X146237316Y-95208803D01*
X146231504Y-95232007D01*
X146223446Y-95254529D01*
X146213218Y-95276153D01*
X146200921Y-95296670D01*
X146186671Y-95315883D01*
X146170607Y-95333607D01*
X146152883Y-95349671D01*
X146133670Y-95363921D01*
X146113153Y-95376218D01*
X146091529Y-95386446D01*
X146069007Y-95394504D01*
X146045803Y-95400316D01*
X146022142Y-95403826D01*
X145998250Y-95405000D01*
X145085750Y-95405000D01*
X145061858Y-95403826D01*
X145038197Y-95400316D01*
X145014993Y-95394504D01*
X144992471Y-95386446D01*
X144970847Y-95376218D01*
X144950330Y-95363921D01*
X144931117Y-95349671D01*
X144913393Y-95333607D01*
X144897329Y-95315883D01*
X144883079Y-95296670D01*
X144870782Y-95276153D01*
X144860554Y-95254529D01*
X144852496Y-95232007D01*
X144846684Y-95208803D01*
X144843174Y-95185142D01*
X144842000Y-95161250D01*
X144842000Y-94673750D01*
X144843174Y-94649858D01*
X144846684Y-94626197D01*
X144852496Y-94602993D01*
X144860554Y-94580471D01*
X144870782Y-94558847D01*
X144883079Y-94538330D01*
X144897329Y-94519117D01*
X144913393Y-94501393D01*
X144931117Y-94485329D01*
X144950330Y-94471079D01*
X144970847Y-94458782D01*
X144992471Y-94448554D01*
X145014993Y-94440496D01*
X145038197Y-94434684D01*
X145061858Y-94431174D01*
X145085750Y-94430000D01*
X145998250Y-94430000D01*
X146022142Y-94431174D01*
X146022142Y-94431174D01*
G37*
D12*
X145542000Y-94917500D03*
D11*
G36*
X146022142Y-92556174D02*
X146045803Y-92559684D01*
X146069007Y-92565496D01*
X146091529Y-92573554D01*
X146113153Y-92583782D01*
X146133670Y-92596079D01*
X146152883Y-92610329D01*
X146170607Y-92626393D01*
X146186671Y-92644117D01*
X146200921Y-92663330D01*
X146213218Y-92683847D01*
X146223446Y-92705471D01*
X146231504Y-92727993D01*
X146237316Y-92751197D01*
X146240826Y-92774858D01*
X146242000Y-92798750D01*
X146242000Y-93286250D01*
X146240826Y-93310142D01*
X146237316Y-93333803D01*
X146231504Y-93357007D01*
X146223446Y-93379529D01*
X146213218Y-93401153D01*
X146200921Y-93421670D01*
X146186671Y-93440883D01*
X146170607Y-93458607D01*
X146152883Y-93474671D01*
X146133670Y-93488921D01*
X146113153Y-93501218D01*
X146091529Y-93511446D01*
X146069007Y-93519504D01*
X146045803Y-93525316D01*
X146022142Y-93528826D01*
X145998250Y-93530000D01*
X145085750Y-93530000D01*
X145061858Y-93528826D01*
X145038197Y-93525316D01*
X145014993Y-93519504D01*
X144992471Y-93511446D01*
X144970847Y-93501218D01*
X144950330Y-93488921D01*
X144931117Y-93474671D01*
X144913393Y-93458607D01*
X144897329Y-93440883D01*
X144883079Y-93421670D01*
X144870782Y-93401153D01*
X144860554Y-93379529D01*
X144852496Y-93357007D01*
X144846684Y-93333803D01*
X144843174Y-93310142D01*
X144842000Y-93286250D01*
X144842000Y-92798750D01*
X144843174Y-92774858D01*
X144846684Y-92751197D01*
X144852496Y-92727993D01*
X144860554Y-92705471D01*
X144870782Y-92683847D01*
X144883079Y-92663330D01*
X144897329Y-92644117D01*
X144913393Y-92626393D01*
X144931117Y-92610329D01*
X144950330Y-92596079D01*
X144970847Y-92583782D01*
X144992471Y-92573554D01*
X145014993Y-92565496D01*
X145038197Y-92559684D01*
X145061858Y-92556174D01*
X145085750Y-92555000D01*
X145998250Y-92555000D01*
X146022142Y-92556174D01*
X146022142Y-92556174D01*
G37*
D12*
X145542000Y-93042500D03*
D11*
G36*
X145634142Y-96075174D02*
X145657803Y-96078684D01*
X145681007Y-96084496D01*
X145703529Y-96092554D01*
X145725153Y-96102782D01*
X145745670Y-96115079D01*
X145764883Y-96129329D01*
X145782607Y-96145393D01*
X145798671Y-96163117D01*
X145812921Y-96182330D01*
X145825218Y-96202847D01*
X145835446Y-96224471D01*
X145843504Y-96246993D01*
X145849316Y-96270197D01*
X145852826Y-96293858D01*
X145854000Y-96317750D01*
X145854000Y-97230250D01*
X145852826Y-97254142D01*
X145849316Y-97277803D01*
X145843504Y-97301007D01*
X145835446Y-97323529D01*
X145825218Y-97345153D01*
X145812921Y-97365670D01*
X145798671Y-97384883D01*
X145782607Y-97402607D01*
X145764883Y-97418671D01*
X145745670Y-97432921D01*
X145725153Y-97445218D01*
X145703529Y-97455446D01*
X145681007Y-97463504D01*
X145657803Y-97469316D01*
X145634142Y-97472826D01*
X145610250Y-97474000D01*
X145122750Y-97474000D01*
X145098858Y-97472826D01*
X145075197Y-97469316D01*
X145051993Y-97463504D01*
X145029471Y-97455446D01*
X145007847Y-97445218D01*
X144987330Y-97432921D01*
X144968117Y-97418671D01*
X144950393Y-97402607D01*
X144934329Y-97384883D01*
X144920079Y-97365670D01*
X144907782Y-97345153D01*
X144897554Y-97323529D01*
X144889496Y-97301007D01*
X144883684Y-97277803D01*
X144880174Y-97254142D01*
X144879000Y-97230250D01*
X144879000Y-96317750D01*
X144880174Y-96293858D01*
X144883684Y-96270197D01*
X144889496Y-96246993D01*
X144897554Y-96224471D01*
X144907782Y-96202847D01*
X144920079Y-96182330D01*
X144934329Y-96163117D01*
X144950393Y-96145393D01*
X144968117Y-96129329D01*
X144987330Y-96115079D01*
X145007847Y-96102782D01*
X145029471Y-96092554D01*
X145051993Y-96084496D01*
X145075197Y-96078684D01*
X145098858Y-96075174D01*
X145122750Y-96074000D01*
X145610250Y-96074000D01*
X145634142Y-96075174D01*
X145634142Y-96075174D01*
G37*
D12*
X145366500Y-96774000D03*
D11*
G36*
X147509142Y-96075174D02*
X147532803Y-96078684D01*
X147556007Y-96084496D01*
X147578529Y-96092554D01*
X147600153Y-96102782D01*
X147620670Y-96115079D01*
X147639883Y-96129329D01*
X147657607Y-96145393D01*
X147673671Y-96163117D01*
X147687921Y-96182330D01*
X147700218Y-96202847D01*
X147710446Y-96224471D01*
X147718504Y-96246993D01*
X147724316Y-96270197D01*
X147727826Y-96293858D01*
X147729000Y-96317750D01*
X147729000Y-97230250D01*
X147727826Y-97254142D01*
X147724316Y-97277803D01*
X147718504Y-97301007D01*
X147710446Y-97323529D01*
X147700218Y-97345153D01*
X147687921Y-97365670D01*
X147673671Y-97384883D01*
X147657607Y-97402607D01*
X147639883Y-97418671D01*
X147620670Y-97432921D01*
X147600153Y-97445218D01*
X147578529Y-97455446D01*
X147556007Y-97463504D01*
X147532803Y-97469316D01*
X147509142Y-97472826D01*
X147485250Y-97474000D01*
X146997750Y-97474000D01*
X146973858Y-97472826D01*
X146950197Y-97469316D01*
X146926993Y-97463504D01*
X146904471Y-97455446D01*
X146882847Y-97445218D01*
X146862330Y-97432921D01*
X146843117Y-97418671D01*
X146825393Y-97402607D01*
X146809329Y-97384883D01*
X146795079Y-97365670D01*
X146782782Y-97345153D01*
X146772554Y-97323529D01*
X146764496Y-97301007D01*
X146758684Y-97277803D01*
X146755174Y-97254142D01*
X146754000Y-97230250D01*
X146754000Y-96317750D01*
X146755174Y-96293858D01*
X146758684Y-96270197D01*
X146764496Y-96246993D01*
X146772554Y-96224471D01*
X146782782Y-96202847D01*
X146795079Y-96182330D01*
X146809329Y-96163117D01*
X146825393Y-96145393D01*
X146843117Y-96129329D01*
X146862330Y-96115079D01*
X146882847Y-96102782D01*
X146904471Y-96092554D01*
X146926993Y-96084496D01*
X146950197Y-96078684D01*
X146973858Y-96075174D01*
X146997750Y-96074000D01*
X147485250Y-96074000D01*
X147509142Y-96075174D01*
X147509142Y-96075174D01*
G37*
D12*
X147241500Y-96774000D03*
D13*
X141394000Y-94046000D03*
X141394000Y-94996000D03*
X141394000Y-95946000D03*
X143594000Y-95946000D03*
X143594000Y-94046000D03*
X143594000Y-94996000D03*
D14*
X150810000Y-95012000D03*
X148910000Y-95012000D03*
X149860000Y-97012000D03*
X137668000Y-93488000D03*
X138618000Y-95488000D03*
X136718000Y-95488000D03*
M02*
