M48
;DRILL file {KiCad (5.0.0)} date 10/30/19 12:44:30
;FORMAT={-:-/ absolute / inch / decimal}
FMAT,2
INCH,TZ
T1C0.0157
T2C0.0300
T3C0.0354
T4C0.0394
T5C0.0591
%
G90
G05
M72
T1
X5.31Y-3.81
X5.38Y-3.89
X5.52Y-3.74
X5.56Y-3.82
X5.79Y-3.66
X5.97Y-3.86
T2
X5.01Y-3.84
X5.01Y-4.16
X5.19Y-3.84
X5.19Y-4.16
T3
X6.29Y-4.
X6.39Y-4.
X5.6Y-4.
X5.7Y-4.
X6.06Y-4.
X6.16Y-4.
X5.37Y-4.
X5.47Y-4.
X5.83Y-4.
X5.93Y-4.
T4
X6.07Y-3.71
X6.17Y-3.71
X6.27Y-3.71
X6.37Y-3.71
T5
X5.59Y-4.3
X5.79Y-4.3
T0
M30
