%TF.GenerationSoftware,KiCad,Pcbnew,(5.0.0)*%
%TF.CreationDate,2019-10-30T12:42:45-05:00*%
%TF.ProjectId,Light-Up Hat,4C696768742D5570204861742E6B6963,rev?*%
%TF.SameCoordinates,Original*%
%TF.FileFunction,Copper,L2,Bot,Signal*%
%TF.FilePolarity,Positive*%
%FSLAX46Y46*%
G04 Gerber Fmt 4.6, Leading zero omitted, Abs format (unit mm)*
G04 Created by KiCad (PCBNEW (5.0.0)) date 10/30/19 12:42:45*
%MOMM*%
%LPD*%
G01*
G04 APERTURE LIST*
%ADD10C,0.200000*%
%ADD11C,1.000000*%
%ADD12R,3.500120X3.500120*%
%ADD13C,3.500120*%
%ADD14R,1.800000X1.800000*%
%ADD15C,1.800000*%
%ADD16R,1.700000X1.700000*%
%ADD17O,1.700000X1.700000*%
%ADD18C,1.524000*%
%ADD19C,0.800000*%
%ADD20C,0.127000*%
%ADD21C,0.254000*%
G04 APERTURE END LIST*
D10*
X124460000Y-111506000D02*
X124460000Y-91440000D01*
X164338000Y-111506000D02*
X124460000Y-111506000D01*
X164338000Y-91440000D02*
X164338000Y-111506000D01*
X124460000Y-91440000D02*
X164338000Y-91440000D01*
D11*
X162560000Y-110236000D03*
X125984000Y-110236000D03*
D12*
X141986000Y-109220000D03*
D13*
X147066000Y-109220000D03*
D14*
X136398000Y-101600000D03*
D15*
X138938000Y-101600000D03*
X144780000Y-101600000D03*
D14*
X142240000Y-101600000D03*
X148082000Y-101600000D03*
D15*
X150622000Y-101600000D03*
X156464000Y-101600000D03*
D14*
X153924000Y-101600000D03*
X159766000Y-101600000D03*
D15*
X162306000Y-101600000D03*
D16*
X154178000Y-94234000D03*
D17*
X156718000Y-94234000D03*
X159258000Y-94234000D03*
X161798000Y-94234000D03*
D18*
X127254000Y-105664000D03*
X127254000Y-97536000D03*
X131826000Y-105664000D03*
X131826000Y-97536000D03*
D11*
X125984000Y-92964000D03*
D19*
X134874000Y-96774000D03*
X136652000Y-98806000D03*
X140208000Y-94996000D03*
X147066000Y-92964000D03*
X141224000Y-97028000D03*
X151638000Y-98044000D03*
D20*
X140716000Y-97536000D02*
X131826000Y-97536000D01*
X141224000Y-97028000D02*
X140716000Y-97536000D01*
X150114000Y-98044000D02*
X151638000Y-98044000D01*
X141224000Y-97028000D02*
X142240000Y-98044000D01*
X142240000Y-98044000D02*
X150114000Y-98044000D01*
D21*
G36*
X163603000Y-100726183D02*
X163175507Y-100298690D01*
X162611330Y-100065000D01*
X162000670Y-100065000D01*
X161436493Y-100298690D01*
X161260139Y-100475044D01*
X161204327Y-100340301D01*
X161025698Y-100161673D01*
X160792309Y-100065000D01*
X160051750Y-100065000D01*
X159893000Y-100223750D01*
X159893000Y-101473000D01*
X159913000Y-101473000D01*
X159913000Y-101727000D01*
X159893000Y-101727000D01*
X159893000Y-102976250D01*
X160051750Y-103135000D01*
X160792309Y-103135000D01*
X161025698Y-103038327D01*
X161204327Y-102859699D01*
X161260139Y-102724956D01*
X161436493Y-102901310D01*
X162000670Y-103135000D01*
X162611330Y-103135000D01*
X163175507Y-102901310D01*
X163603001Y-102473816D01*
X163603001Y-109788128D01*
X163522207Y-109593074D01*
X163202926Y-109273793D01*
X162785766Y-109101000D01*
X162334234Y-109101000D01*
X161917074Y-109273793D01*
X161597793Y-109593074D01*
X161425000Y-110010234D01*
X161425000Y-110461766D01*
X161553089Y-110771000D01*
X148796608Y-110771000D01*
X148760573Y-110734965D01*
X149105319Y-110544672D01*
X149457015Y-109663424D01*
X149444701Y-108714668D01*
X149105319Y-107895328D01*
X148760571Y-107705034D01*
X147245605Y-109220000D01*
X147259748Y-109234143D01*
X147080143Y-109413748D01*
X147066000Y-109399605D01*
X147051858Y-109413748D01*
X146872253Y-109234143D01*
X146886395Y-109220000D01*
X145371429Y-107705034D01*
X145026681Y-107895328D01*
X144674985Y-108776576D01*
X144687299Y-109725332D01*
X145026681Y-110544672D01*
X145371427Y-110734965D01*
X145335392Y-110771000D01*
X144383500Y-110771000D01*
X144383500Y-107525429D01*
X145551034Y-107525429D01*
X147066000Y-109040395D01*
X148580966Y-107525429D01*
X148390672Y-107180681D01*
X147509424Y-106828985D01*
X146560668Y-106841299D01*
X145741328Y-107180681D01*
X145551034Y-107525429D01*
X144383500Y-107525429D01*
X144383500Y-107469940D01*
X144334217Y-107222175D01*
X144193869Y-107012131D01*
X143983825Y-106871783D01*
X143736060Y-106822500D01*
X140235940Y-106822500D01*
X139988175Y-106871783D01*
X139778131Y-107012131D01*
X139637783Y-107222175D01*
X139588500Y-107469940D01*
X139588500Y-110771000D01*
X126990911Y-110771000D01*
X127119000Y-110461766D01*
X127119000Y-110010234D01*
X126946207Y-109593074D01*
X126626926Y-109273793D01*
X126209766Y-109101000D01*
X125758234Y-109101000D01*
X125341074Y-109273793D01*
X125195000Y-109419867D01*
X125195000Y-106644213D01*
X126453392Y-106644213D01*
X126522857Y-106886397D01*
X127046302Y-107073144D01*
X127601368Y-107045362D01*
X127985143Y-106886397D01*
X128054608Y-106644213D01*
X127254000Y-105843605D01*
X126453392Y-106644213D01*
X125195000Y-106644213D01*
X125195000Y-105456302D01*
X125844856Y-105456302D01*
X125872638Y-106011368D01*
X126031603Y-106395143D01*
X126273787Y-106464608D01*
X127074395Y-105664000D01*
X127433605Y-105664000D01*
X128234213Y-106464608D01*
X128476397Y-106395143D01*
X128663144Y-105871698D01*
X128638840Y-105386119D01*
X130429000Y-105386119D01*
X130429000Y-105941881D01*
X130641680Y-106455337D01*
X131034663Y-106848320D01*
X131548119Y-107061000D01*
X132103881Y-107061000D01*
X132617337Y-106848320D01*
X133010320Y-106455337D01*
X133223000Y-105941881D01*
X133223000Y-105386119D01*
X133010320Y-104872663D01*
X132617337Y-104479680D01*
X132103881Y-104267000D01*
X131548119Y-104267000D01*
X131034663Y-104479680D01*
X130641680Y-104872663D01*
X130429000Y-105386119D01*
X128638840Y-105386119D01*
X128635362Y-105316632D01*
X128476397Y-104932857D01*
X128234213Y-104863392D01*
X127433605Y-105664000D01*
X127074395Y-105664000D01*
X126273787Y-104863392D01*
X126031603Y-104932857D01*
X125844856Y-105456302D01*
X125195000Y-105456302D01*
X125195000Y-104683787D01*
X126453392Y-104683787D01*
X127254000Y-105484395D01*
X128054608Y-104683787D01*
X127985143Y-104441603D01*
X127461698Y-104254856D01*
X126906632Y-104282638D01*
X126522857Y-104441603D01*
X126453392Y-104683787D01*
X125195000Y-104683787D01*
X125195000Y-101885750D01*
X134863000Y-101885750D01*
X134863000Y-102626310D01*
X134959673Y-102859699D01*
X135138302Y-103038327D01*
X135371691Y-103135000D01*
X136112250Y-103135000D01*
X136271000Y-102976250D01*
X136271000Y-101727000D01*
X135021750Y-101727000D01*
X134863000Y-101885750D01*
X125195000Y-101885750D01*
X125195000Y-100573690D01*
X134863000Y-100573690D01*
X134863000Y-101314250D01*
X135021750Y-101473000D01*
X136271000Y-101473000D01*
X136271000Y-100223750D01*
X136525000Y-100223750D01*
X136525000Y-101473000D01*
X136545000Y-101473000D01*
X136545000Y-101727000D01*
X136525000Y-101727000D01*
X136525000Y-102976250D01*
X136683750Y-103135000D01*
X137424309Y-103135000D01*
X137657698Y-103038327D01*
X137836327Y-102859699D01*
X137892139Y-102724956D01*
X138068493Y-102901310D01*
X138632670Y-103135000D01*
X139243330Y-103135000D01*
X139807507Y-102901310D01*
X140239310Y-102469507D01*
X140473000Y-101905330D01*
X140473000Y-101885750D01*
X140705000Y-101885750D01*
X140705000Y-102626310D01*
X140801673Y-102859699D01*
X140980302Y-103038327D01*
X141213691Y-103135000D01*
X141954250Y-103135000D01*
X142113000Y-102976250D01*
X142113000Y-101727000D01*
X140863750Y-101727000D01*
X140705000Y-101885750D01*
X140473000Y-101885750D01*
X140473000Y-101294670D01*
X140239310Y-100730493D01*
X140082507Y-100573690D01*
X140705000Y-100573690D01*
X140705000Y-101314250D01*
X140863750Y-101473000D01*
X142113000Y-101473000D01*
X142113000Y-100223750D01*
X142367000Y-100223750D01*
X142367000Y-101473000D01*
X142387000Y-101473000D01*
X142387000Y-101727000D01*
X142367000Y-101727000D01*
X142367000Y-102976250D01*
X142525750Y-103135000D01*
X143266309Y-103135000D01*
X143499698Y-103038327D01*
X143678327Y-102859699D01*
X143734139Y-102724956D01*
X143910493Y-102901310D01*
X144474670Y-103135000D01*
X145085330Y-103135000D01*
X145649507Y-102901310D01*
X146081310Y-102469507D01*
X146315000Y-101905330D01*
X146315000Y-101885750D01*
X146547000Y-101885750D01*
X146547000Y-102626310D01*
X146643673Y-102859699D01*
X146822302Y-103038327D01*
X147055691Y-103135000D01*
X147796250Y-103135000D01*
X147955000Y-102976250D01*
X147955000Y-101727000D01*
X146705750Y-101727000D01*
X146547000Y-101885750D01*
X146315000Y-101885750D01*
X146315000Y-101294670D01*
X146081310Y-100730493D01*
X145924507Y-100573690D01*
X146547000Y-100573690D01*
X146547000Y-101314250D01*
X146705750Y-101473000D01*
X147955000Y-101473000D01*
X147955000Y-100223750D01*
X148209000Y-100223750D01*
X148209000Y-101473000D01*
X148229000Y-101473000D01*
X148229000Y-101727000D01*
X148209000Y-101727000D01*
X148209000Y-102976250D01*
X148367750Y-103135000D01*
X149108309Y-103135000D01*
X149341698Y-103038327D01*
X149520327Y-102859699D01*
X149576139Y-102724956D01*
X149752493Y-102901310D01*
X150316670Y-103135000D01*
X150927330Y-103135000D01*
X151491507Y-102901310D01*
X151923310Y-102469507D01*
X152157000Y-101905330D01*
X152157000Y-101885750D01*
X152389000Y-101885750D01*
X152389000Y-102626310D01*
X152485673Y-102859699D01*
X152664302Y-103038327D01*
X152897691Y-103135000D01*
X153638250Y-103135000D01*
X153797000Y-102976250D01*
X153797000Y-101727000D01*
X152547750Y-101727000D01*
X152389000Y-101885750D01*
X152157000Y-101885750D01*
X152157000Y-101294670D01*
X151923310Y-100730493D01*
X151766507Y-100573690D01*
X152389000Y-100573690D01*
X152389000Y-101314250D01*
X152547750Y-101473000D01*
X153797000Y-101473000D01*
X153797000Y-100223750D01*
X154051000Y-100223750D01*
X154051000Y-101473000D01*
X154071000Y-101473000D01*
X154071000Y-101727000D01*
X154051000Y-101727000D01*
X154051000Y-102976250D01*
X154209750Y-103135000D01*
X154950309Y-103135000D01*
X155183698Y-103038327D01*
X155362327Y-102859699D01*
X155418139Y-102724956D01*
X155594493Y-102901310D01*
X156158670Y-103135000D01*
X156769330Y-103135000D01*
X157333507Y-102901310D01*
X157765310Y-102469507D01*
X157999000Y-101905330D01*
X157999000Y-101885750D01*
X158231000Y-101885750D01*
X158231000Y-102626310D01*
X158327673Y-102859699D01*
X158506302Y-103038327D01*
X158739691Y-103135000D01*
X159480250Y-103135000D01*
X159639000Y-102976250D01*
X159639000Y-101727000D01*
X158389750Y-101727000D01*
X158231000Y-101885750D01*
X157999000Y-101885750D01*
X157999000Y-101294670D01*
X157765310Y-100730493D01*
X157608507Y-100573690D01*
X158231000Y-100573690D01*
X158231000Y-101314250D01*
X158389750Y-101473000D01*
X159639000Y-101473000D01*
X159639000Y-100223750D01*
X159480250Y-100065000D01*
X158739691Y-100065000D01*
X158506302Y-100161673D01*
X158327673Y-100340301D01*
X158231000Y-100573690D01*
X157608507Y-100573690D01*
X157333507Y-100298690D01*
X156769330Y-100065000D01*
X156158670Y-100065000D01*
X155594493Y-100298690D01*
X155418139Y-100475044D01*
X155362327Y-100340301D01*
X155183698Y-100161673D01*
X154950309Y-100065000D01*
X154209750Y-100065000D01*
X154051000Y-100223750D01*
X153797000Y-100223750D01*
X153638250Y-100065000D01*
X152897691Y-100065000D01*
X152664302Y-100161673D01*
X152485673Y-100340301D01*
X152389000Y-100573690D01*
X151766507Y-100573690D01*
X151491507Y-100298690D01*
X150927330Y-100065000D01*
X150316670Y-100065000D01*
X149752493Y-100298690D01*
X149576139Y-100475044D01*
X149520327Y-100340301D01*
X149341698Y-100161673D01*
X149108309Y-100065000D01*
X148367750Y-100065000D01*
X148209000Y-100223750D01*
X147955000Y-100223750D01*
X147796250Y-100065000D01*
X147055691Y-100065000D01*
X146822302Y-100161673D01*
X146643673Y-100340301D01*
X146547000Y-100573690D01*
X145924507Y-100573690D01*
X145649507Y-100298690D01*
X145085330Y-100065000D01*
X144474670Y-100065000D01*
X143910493Y-100298690D01*
X143734139Y-100475044D01*
X143678327Y-100340301D01*
X143499698Y-100161673D01*
X143266309Y-100065000D01*
X142525750Y-100065000D01*
X142367000Y-100223750D01*
X142113000Y-100223750D01*
X141954250Y-100065000D01*
X141213691Y-100065000D01*
X140980302Y-100161673D01*
X140801673Y-100340301D01*
X140705000Y-100573690D01*
X140082507Y-100573690D01*
X139807507Y-100298690D01*
X139243330Y-100065000D01*
X138632670Y-100065000D01*
X138068493Y-100298690D01*
X137892139Y-100475044D01*
X137836327Y-100340301D01*
X137657698Y-100161673D01*
X137424309Y-100065000D01*
X136683750Y-100065000D01*
X136525000Y-100223750D01*
X136271000Y-100223750D01*
X136112250Y-100065000D01*
X135371691Y-100065000D01*
X135138302Y-100161673D01*
X134959673Y-100340301D01*
X134863000Y-100573690D01*
X125195000Y-100573690D01*
X125195000Y-98516213D01*
X126453392Y-98516213D01*
X126522857Y-98758397D01*
X127046302Y-98945144D01*
X127601368Y-98917362D01*
X127985143Y-98758397D01*
X128054608Y-98516213D01*
X127254000Y-97715605D01*
X126453392Y-98516213D01*
X125195000Y-98516213D01*
X125195000Y-97328302D01*
X125844856Y-97328302D01*
X125872638Y-97883368D01*
X126031603Y-98267143D01*
X126273787Y-98336608D01*
X127074395Y-97536000D01*
X127433605Y-97536000D01*
X128234213Y-98336608D01*
X128476397Y-98267143D01*
X128663144Y-97743698D01*
X128638840Y-97258119D01*
X130429000Y-97258119D01*
X130429000Y-97813881D01*
X130641680Y-98327337D01*
X131034663Y-98720320D01*
X131548119Y-98933000D01*
X132103881Y-98933000D01*
X132617337Y-98720320D01*
X133010320Y-98327337D01*
X133048774Y-98234500D01*
X140647210Y-98234500D01*
X140716000Y-98248183D01*
X140784790Y-98234500D01*
X140784794Y-98234500D01*
X140988541Y-98193972D01*
X141184554Y-98063000D01*
X141271172Y-98063000D01*
X141697441Y-98489269D01*
X141736410Y-98547590D01*
X141967459Y-98701972D01*
X142171206Y-98742500D01*
X142171210Y-98742500D01*
X142240000Y-98756183D01*
X142308790Y-98742500D01*
X150872789Y-98742500D01*
X151051720Y-98921431D01*
X151432126Y-99079000D01*
X151843874Y-99079000D01*
X152224280Y-98921431D01*
X152515431Y-98630280D01*
X152673000Y-98249874D01*
X152673000Y-97838126D01*
X152515431Y-97457720D01*
X152224280Y-97166569D01*
X151843874Y-97009000D01*
X151432126Y-97009000D01*
X151051720Y-97166569D01*
X150872789Y-97345500D01*
X142529328Y-97345500D01*
X142259000Y-97075172D01*
X142259000Y-96822126D01*
X142101431Y-96441720D01*
X141810280Y-96150569D01*
X141429874Y-95993000D01*
X141018126Y-95993000D01*
X140637720Y-96150569D01*
X140346569Y-96441720D01*
X140189000Y-96822126D01*
X140189000Y-96837500D01*
X133048774Y-96837500D01*
X133010320Y-96744663D01*
X132617337Y-96351680D01*
X132103881Y-96139000D01*
X131548119Y-96139000D01*
X131034663Y-96351680D01*
X130641680Y-96744663D01*
X130429000Y-97258119D01*
X128638840Y-97258119D01*
X128635362Y-97188632D01*
X128476397Y-96804857D01*
X128234213Y-96735392D01*
X127433605Y-97536000D01*
X127074395Y-97536000D01*
X126273787Y-96735392D01*
X126031603Y-96804857D01*
X125844856Y-97328302D01*
X125195000Y-97328302D01*
X125195000Y-96555787D01*
X126453392Y-96555787D01*
X127254000Y-97356395D01*
X128054608Y-96555787D01*
X127985143Y-96313603D01*
X127461698Y-96126856D01*
X126906632Y-96154638D01*
X126522857Y-96313603D01*
X126453392Y-96555787D01*
X125195000Y-96555787D01*
X125195000Y-93780133D01*
X125341074Y-93926207D01*
X125758234Y-94099000D01*
X126209766Y-94099000D01*
X126626926Y-93926207D01*
X126946207Y-93606926D01*
X127038545Y-93384000D01*
X152680560Y-93384000D01*
X152680560Y-95084000D01*
X152729843Y-95331765D01*
X152870191Y-95541809D01*
X153080235Y-95682157D01*
X153328000Y-95731440D01*
X155028000Y-95731440D01*
X155275765Y-95682157D01*
X155485809Y-95541809D01*
X155626157Y-95331765D01*
X155646739Y-95228292D01*
X155951076Y-95505645D01*
X156361110Y-95675476D01*
X156591000Y-95554155D01*
X156591000Y-94361000D01*
X156571000Y-94361000D01*
X156571000Y-94107000D01*
X156591000Y-94107000D01*
X156591000Y-92913845D01*
X156845000Y-92913845D01*
X156845000Y-94107000D01*
X156865000Y-94107000D01*
X156865000Y-94361000D01*
X156845000Y-94361000D01*
X156845000Y-95554155D01*
X157074890Y-95675476D01*
X157484924Y-95505645D01*
X157913183Y-95115358D01*
X157974157Y-94985522D01*
X158187375Y-95304625D01*
X158678582Y-95632839D01*
X159111744Y-95719000D01*
X159404256Y-95719000D01*
X159837418Y-95632839D01*
X160328625Y-95304625D01*
X160528000Y-95006239D01*
X160727375Y-95304625D01*
X161218582Y-95632839D01*
X161651744Y-95719000D01*
X161944256Y-95719000D01*
X162377418Y-95632839D01*
X162868625Y-95304625D01*
X163196839Y-94813418D01*
X163312092Y-94234000D01*
X163196839Y-93654582D01*
X162868625Y-93163375D01*
X162377418Y-92835161D01*
X161944256Y-92749000D01*
X161651744Y-92749000D01*
X161218582Y-92835161D01*
X160727375Y-93163375D01*
X160528000Y-93461761D01*
X160328625Y-93163375D01*
X159837418Y-92835161D01*
X159404256Y-92749000D01*
X159111744Y-92749000D01*
X158678582Y-92835161D01*
X158187375Y-93163375D01*
X157974157Y-93482478D01*
X157913183Y-93352642D01*
X157484924Y-92962355D01*
X157074890Y-92792524D01*
X156845000Y-92913845D01*
X156591000Y-92913845D01*
X156361110Y-92792524D01*
X155951076Y-92962355D01*
X155646739Y-93239708D01*
X155626157Y-93136235D01*
X155485809Y-92926191D01*
X155275765Y-92785843D01*
X155028000Y-92736560D01*
X153328000Y-92736560D01*
X153080235Y-92785843D01*
X152870191Y-92926191D01*
X152729843Y-93136235D01*
X152680560Y-93384000D01*
X127038545Y-93384000D01*
X127119000Y-93189766D01*
X127119000Y-92738234D01*
X126946207Y-92321074D01*
X126800133Y-92175000D01*
X163603000Y-92175000D01*
X163603000Y-100726183D01*
X163603000Y-100726183D01*
G37*
X163603000Y-100726183D02*
X163175507Y-100298690D01*
X162611330Y-100065000D01*
X162000670Y-100065000D01*
X161436493Y-100298690D01*
X161260139Y-100475044D01*
X161204327Y-100340301D01*
X161025698Y-100161673D01*
X160792309Y-100065000D01*
X160051750Y-100065000D01*
X159893000Y-100223750D01*
X159893000Y-101473000D01*
X159913000Y-101473000D01*
X159913000Y-101727000D01*
X159893000Y-101727000D01*
X159893000Y-102976250D01*
X160051750Y-103135000D01*
X160792309Y-103135000D01*
X161025698Y-103038327D01*
X161204327Y-102859699D01*
X161260139Y-102724956D01*
X161436493Y-102901310D01*
X162000670Y-103135000D01*
X162611330Y-103135000D01*
X163175507Y-102901310D01*
X163603001Y-102473816D01*
X163603001Y-109788128D01*
X163522207Y-109593074D01*
X163202926Y-109273793D01*
X162785766Y-109101000D01*
X162334234Y-109101000D01*
X161917074Y-109273793D01*
X161597793Y-109593074D01*
X161425000Y-110010234D01*
X161425000Y-110461766D01*
X161553089Y-110771000D01*
X148796608Y-110771000D01*
X148760573Y-110734965D01*
X149105319Y-110544672D01*
X149457015Y-109663424D01*
X149444701Y-108714668D01*
X149105319Y-107895328D01*
X148760571Y-107705034D01*
X147245605Y-109220000D01*
X147259748Y-109234143D01*
X147080143Y-109413748D01*
X147066000Y-109399605D01*
X147051858Y-109413748D01*
X146872253Y-109234143D01*
X146886395Y-109220000D01*
X145371429Y-107705034D01*
X145026681Y-107895328D01*
X144674985Y-108776576D01*
X144687299Y-109725332D01*
X145026681Y-110544672D01*
X145371427Y-110734965D01*
X145335392Y-110771000D01*
X144383500Y-110771000D01*
X144383500Y-107525429D01*
X145551034Y-107525429D01*
X147066000Y-109040395D01*
X148580966Y-107525429D01*
X148390672Y-107180681D01*
X147509424Y-106828985D01*
X146560668Y-106841299D01*
X145741328Y-107180681D01*
X145551034Y-107525429D01*
X144383500Y-107525429D01*
X144383500Y-107469940D01*
X144334217Y-107222175D01*
X144193869Y-107012131D01*
X143983825Y-106871783D01*
X143736060Y-106822500D01*
X140235940Y-106822500D01*
X139988175Y-106871783D01*
X139778131Y-107012131D01*
X139637783Y-107222175D01*
X139588500Y-107469940D01*
X139588500Y-110771000D01*
X126990911Y-110771000D01*
X127119000Y-110461766D01*
X127119000Y-110010234D01*
X126946207Y-109593074D01*
X126626926Y-109273793D01*
X126209766Y-109101000D01*
X125758234Y-109101000D01*
X125341074Y-109273793D01*
X125195000Y-109419867D01*
X125195000Y-106644213D01*
X126453392Y-106644213D01*
X126522857Y-106886397D01*
X127046302Y-107073144D01*
X127601368Y-107045362D01*
X127985143Y-106886397D01*
X128054608Y-106644213D01*
X127254000Y-105843605D01*
X126453392Y-106644213D01*
X125195000Y-106644213D01*
X125195000Y-105456302D01*
X125844856Y-105456302D01*
X125872638Y-106011368D01*
X126031603Y-106395143D01*
X126273787Y-106464608D01*
X127074395Y-105664000D01*
X127433605Y-105664000D01*
X128234213Y-106464608D01*
X128476397Y-106395143D01*
X128663144Y-105871698D01*
X128638840Y-105386119D01*
X130429000Y-105386119D01*
X130429000Y-105941881D01*
X130641680Y-106455337D01*
X131034663Y-106848320D01*
X131548119Y-107061000D01*
X132103881Y-107061000D01*
X132617337Y-106848320D01*
X133010320Y-106455337D01*
X133223000Y-105941881D01*
X133223000Y-105386119D01*
X133010320Y-104872663D01*
X132617337Y-104479680D01*
X132103881Y-104267000D01*
X131548119Y-104267000D01*
X131034663Y-104479680D01*
X130641680Y-104872663D01*
X130429000Y-105386119D01*
X128638840Y-105386119D01*
X128635362Y-105316632D01*
X128476397Y-104932857D01*
X128234213Y-104863392D01*
X127433605Y-105664000D01*
X127074395Y-105664000D01*
X126273787Y-104863392D01*
X126031603Y-104932857D01*
X125844856Y-105456302D01*
X125195000Y-105456302D01*
X125195000Y-104683787D01*
X126453392Y-104683787D01*
X127254000Y-105484395D01*
X128054608Y-104683787D01*
X127985143Y-104441603D01*
X127461698Y-104254856D01*
X126906632Y-104282638D01*
X126522857Y-104441603D01*
X126453392Y-104683787D01*
X125195000Y-104683787D01*
X125195000Y-101885750D01*
X134863000Y-101885750D01*
X134863000Y-102626310D01*
X134959673Y-102859699D01*
X135138302Y-103038327D01*
X135371691Y-103135000D01*
X136112250Y-103135000D01*
X136271000Y-102976250D01*
X136271000Y-101727000D01*
X135021750Y-101727000D01*
X134863000Y-101885750D01*
X125195000Y-101885750D01*
X125195000Y-100573690D01*
X134863000Y-100573690D01*
X134863000Y-101314250D01*
X135021750Y-101473000D01*
X136271000Y-101473000D01*
X136271000Y-100223750D01*
X136525000Y-100223750D01*
X136525000Y-101473000D01*
X136545000Y-101473000D01*
X136545000Y-101727000D01*
X136525000Y-101727000D01*
X136525000Y-102976250D01*
X136683750Y-103135000D01*
X137424309Y-103135000D01*
X137657698Y-103038327D01*
X137836327Y-102859699D01*
X137892139Y-102724956D01*
X138068493Y-102901310D01*
X138632670Y-103135000D01*
X139243330Y-103135000D01*
X139807507Y-102901310D01*
X140239310Y-102469507D01*
X140473000Y-101905330D01*
X140473000Y-101885750D01*
X140705000Y-101885750D01*
X140705000Y-102626310D01*
X140801673Y-102859699D01*
X140980302Y-103038327D01*
X141213691Y-103135000D01*
X141954250Y-103135000D01*
X142113000Y-102976250D01*
X142113000Y-101727000D01*
X140863750Y-101727000D01*
X140705000Y-101885750D01*
X140473000Y-101885750D01*
X140473000Y-101294670D01*
X140239310Y-100730493D01*
X140082507Y-100573690D01*
X140705000Y-100573690D01*
X140705000Y-101314250D01*
X140863750Y-101473000D01*
X142113000Y-101473000D01*
X142113000Y-100223750D01*
X142367000Y-100223750D01*
X142367000Y-101473000D01*
X142387000Y-101473000D01*
X142387000Y-101727000D01*
X142367000Y-101727000D01*
X142367000Y-102976250D01*
X142525750Y-103135000D01*
X143266309Y-103135000D01*
X143499698Y-103038327D01*
X143678327Y-102859699D01*
X143734139Y-102724956D01*
X143910493Y-102901310D01*
X144474670Y-103135000D01*
X145085330Y-103135000D01*
X145649507Y-102901310D01*
X146081310Y-102469507D01*
X146315000Y-101905330D01*
X146315000Y-101885750D01*
X146547000Y-101885750D01*
X146547000Y-102626310D01*
X146643673Y-102859699D01*
X146822302Y-103038327D01*
X147055691Y-103135000D01*
X147796250Y-103135000D01*
X147955000Y-102976250D01*
X147955000Y-101727000D01*
X146705750Y-101727000D01*
X146547000Y-101885750D01*
X146315000Y-101885750D01*
X146315000Y-101294670D01*
X146081310Y-100730493D01*
X145924507Y-100573690D01*
X146547000Y-100573690D01*
X146547000Y-101314250D01*
X146705750Y-101473000D01*
X147955000Y-101473000D01*
X147955000Y-100223750D01*
X148209000Y-100223750D01*
X148209000Y-101473000D01*
X148229000Y-101473000D01*
X148229000Y-101727000D01*
X148209000Y-101727000D01*
X148209000Y-102976250D01*
X148367750Y-103135000D01*
X149108309Y-103135000D01*
X149341698Y-103038327D01*
X149520327Y-102859699D01*
X149576139Y-102724956D01*
X149752493Y-102901310D01*
X150316670Y-103135000D01*
X150927330Y-103135000D01*
X151491507Y-102901310D01*
X151923310Y-102469507D01*
X152157000Y-101905330D01*
X152157000Y-101885750D01*
X152389000Y-101885750D01*
X152389000Y-102626310D01*
X152485673Y-102859699D01*
X152664302Y-103038327D01*
X152897691Y-103135000D01*
X153638250Y-103135000D01*
X153797000Y-102976250D01*
X153797000Y-101727000D01*
X152547750Y-101727000D01*
X152389000Y-101885750D01*
X152157000Y-101885750D01*
X152157000Y-101294670D01*
X151923310Y-100730493D01*
X151766507Y-100573690D01*
X152389000Y-100573690D01*
X152389000Y-101314250D01*
X152547750Y-101473000D01*
X153797000Y-101473000D01*
X153797000Y-100223750D01*
X154051000Y-100223750D01*
X154051000Y-101473000D01*
X154071000Y-101473000D01*
X154071000Y-101727000D01*
X154051000Y-101727000D01*
X154051000Y-102976250D01*
X154209750Y-103135000D01*
X154950309Y-103135000D01*
X155183698Y-103038327D01*
X155362327Y-102859699D01*
X155418139Y-102724956D01*
X155594493Y-102901310D01*
X156158670Y-103135000D01*
X156769330Y-103135000D01*
X157333507Y-102901310D01*
X157765310Y-102469507D01*
X157999000Y-101905330D01*
X157999000Y-101885750D01*
X158231000Y-101885750D01*
X158231000Y-102626310D01*
X158327673Y-102859699D01*
X158506302Y-103038327D01*
X158739691Y-103135000D01*
X159480250Y-103135000D01*
X159639000Y-102976250D01*
X159639000Y-101727000D01*
X158389750Y-101727000D01*
X158231000Y-101885750D01*
X157999000Y-101885750D01*
X157999000Y-101294670D01*
X157765310Y-100730493D01*
X157608507Y-100573690D01*
X158231000Y-100573690D01*
X158231000Y-101314250D01*
X158389750Y-101473000D01*
X159639000Y-101473000D01*
X159639000Y-100223750D01*
X159480250Y-100065000D01*
X158739691Y-100065000D01*
X158506302Y-100161673D01*
X158327673Y-100340301D01*
X158231000Y-100573690D01*
X157608507Y-100573690D01*
X157333507Y-100298690D01*
X156769330Y-100065000D01*
X156158670Y-100065000D01*
X155594493Y-100298690D01*
X155418139Y-100475044D01*
X155362327Y-100340301D01*
X155183698Y-100161673D01*
X154950309Y-100065000D01*
X154209750Y-100065000D01*
X154051000Y-100223750D01*
X153797000Y-100223750D01*
X153638250Y-100065000D01*
X152897691Y-100065000D01*
X152664302Y-100161673D01*
X152485673Y-100340301D01*
X152389000Y-100573690D01*
X151766507Y-100573690D01*
X151491507Y-100298690D01*
X150927330Y-100065000D01*
X150316670Y-100065000D01*
X149752493Y-100298690D01*
X149576139Y-100475044D01*
X149520327Y-100340301D01*
X149341698Y-100161673D01*
X149108309Y-100065000D01*
X148367750Y-100065000D01*
X148209000Y-100223750D01*
X147955000Y-100223750D01*
X147796250Y-100065000D01*
X147055691Y-100065000D01*
X146822302Y-100161673D01*
X146643673Y-100340301D01*
X146547000Y-100573690D01*
X145924507Y-100573690D01*
X145649507Y-100298690D01*
X145085330Y-100065000D01*
X144474670Y-100065000D01*
X143910493Y-100298690D01*
X143734139Y-100475044D01*
X143678327Y-100340301D01*
X143499698Y-100161673D01*
X143266309Y-100065000D01*
X142525750Y-100065000D01*
X142367000Y-100223750D01*
X142113000Y-100223750D01*
X141954250Y-100065000D01*
X141213691Y-100065000D01*
X140980302Y-100161673D01*
X140801673Y-100340301D01*
X140705000Y-100573690D01*
X140082507Y-100573690D01*
X139807507Y-100298690D01*
X139243330Y-100065000D01*
X138632670Y-100065000D01*
X138068493Y-100298690D01*
X137892139Y-100475044D01*
X137836327Y-100340301D01*
X137657698Y-100161673D01*
X137424309Y-100065000D01*
X136683750Y-100065000D01*
X136525000Y-100223750D01*
X136271000Y-100223750D01*
X136112250Y-100065000D01*
X135371691Y-100065000D01*
X135138302Y-100161673D01*
X134959673Y-100340301D01*
X134863000Y-100573690D01*
X125195000Y-100573690D01*
X125195000Y-98516213D01*
X126453392Y-98516213D01*
X126522857Y-98758397D01*
X127046302Y-98945144D01*
X127601368Y-98917362D01*
X127985143Y-98758397D01*
X128054608Y-98516213D01*
X127254000Y-97715605D01*
X126453392Y-98516213D01*
X125195000Y-98516213D01*
X125195000Y-97328302D01*
X125844856Y-97328302D01*
X125872638Y-97883368D01*
X126031603Y-98267143D01*
X126273787Y-98336608D01*
X127074395Y-97536000D01*
X127433605Y-97536000D01*
X128234213Y-98336608D01*
X128476397Y-98267143D01*
X128663144Y-97743698D01*
X128638840Y-97258119D01*
X130429000Y-97258119D01*
X130429000Y-97813881D01*
X130641680Y-98327337D01*
X131034663Y-98720320D01*
X131548119Y-98933000D01*
X132103881Y-98933000D01*
X132617337Y-98720320D01*
X133010320Y-98327337D01*
X133048774Y-98234500D01*
X140647210Y-98234500D01*
X140716000Y-98248183D01*
X140784790Y-98234500D01*
X140784794Y-98234500D01*
X140988541Y-98193972D01*
X141184554Y-98063000D01*
X141271172Y-98063000D01*
X141697441Y-98489269D01*
X141736410Y-98547590D01*
X141967459Y-98701972D01*
X142171206Y-98742500D01*
X142171210Y-98742500D01*
X142240000Y-98756183D01*
X142308790Y-98742500D01*
X150872789Y-98742500D01*
X151051720Y-98921431D01*
X151432126Y-99079000D01*
X151843874Y-99079000D01*
X152224280Y-98921431D01*
X152515431Y-98630280D01*
X152673000Y-98249874D01*
X152673000Y-97838126D01*
X152515431Y-97457720D01*
X152224280Y-97166569D01*
X151843874Y-97009000D01*
X151432126Y-97009000D01*
X151051720Y-97166569D01*
X150872789Y-97345500D01*
X142529328Y-97345500D01*
X142259000Y-97075172D01*
X142259000Y-96822126D01*
X142101431Y-96441720D01*
X141810280Y-96150569D01*
X141429874Y-95993000D01*
X141018126Y-95993000D01*
X140637720Y-96150569D01*
X140346569Y-96441720D01*
X140189000Y-96822126D01*
X140189000Y-96837500D01*
X133048774Y-96837500D01*
X133010320Y-96744663D01*
X132617337Y-96351680D01*
X132103881Y-96139000D01*
X131548119Y-96139000D01*
X131034663Y-96351680D01*
X130641680Y-96744663D01*
X130429000Y-97258119D01*
X128638840Y-97258119D01*
X128635362Y-97188632D01*
X128476397Y-96804857D01*
X128234213Y-96735392D01*
X127433605Y-97536000D01*
X127074395Y-97536000D01*
X126273787Y-96735392D01*
X126031603Y-96804857D01*
X125844856Y-97328302D01*
X125195000Y-97328302D01*
X125195000Y-96555787D01*
X126453392Y-96555787D01*
X127254000Y-97356395D01*
X128054608Y-96555787D01*
X127985143Y-96313603D01*
X127461698Y-96126856D01*
X126906632Y-96154638D01*
X126522857Y-96313603D01*
X126453392Y-96555787D01*
X125195000Y-96555787D01*
X125195000Y-93780133D01*
X125341074Y-93926207D01*
X125758234Y-94099000D01*
X126209766Y-94099000D01*
X126626926Y-93926207D01*
X126946207Y-93606926D01*
X127038545Y-93384000D01*
X152680560Y-93384000D01*
X152680560Y-95084000D01*
X152729843Y-95331765D01*
X152870191Y-95541809D01*
X153080235Y-95682157D01*
X153328000Y-95731440D01*
X155028000Y-95731440D01*
X155275765Y-95682157D01*
X155485809Y-95541809D01*
X155626157Y-95331765D01*
X155646739Y-95228292D01*
X155951076Y-95505645D01*
X156361110Y-95675476D01*
X156591000Y-95554155D01*
X156591000Y-94361000D01*
X156571000Y-94361000D01*
X156571000Y-94107000D01*
X156591000Y-94107000D01*
X156591000Y-92913845D01*
X156845000Y-92913845D01*
X156845000Y-94107000D01*
X156865000Y-94107000D01*
X156865000Y-94361000D01*
X156845000Y-94361000D01*
X156845000Y-95554155D01*
X157074890Y-95675476D01*
X157484924Y-95505645D01*
X157913183Y-95115358D01*
X157974157Y-94985522D01*
X158187375Y-95304625D01*
X158678582Y-95632839D01*
X159111744Y-95719000D01*
X159404256Y-95719000D01*
X159837418Y-95632839D01*
X160328625Y-95304625D01*
X160528000Y-95006239D01*
X160727375Y-95304625D01*
X161218582Y-95632839D01*
X161651744Y-95719000D01*
X161944256Y-95719000D01*
X162377418Y-95632839D01*
X162868625Y-95304625D01*
X163196839Y-94813418D01*
X163312092Y-94234000D01*
X163196839Y-93654582D01*
X162868625Y-93163375D01*
X162377418Y-92835161D01*
X161944256Y-92749000D01*
X161651744Y-92749000D01*
X161218582Y-92835161D01*
X160727375Y-93163375D01*
X160528000Y-93461761D01*
X160328625Y-93163375D01*
X159837418Y-92835161D01*
X159404256Y-92749000D01*
X159111744Y-92749000D01*
X158678582Y-92835161D01*
X158187375Y-93163375D01*
X157974157Y-93482478D01*
X157913183Y-93352642D01*
X157484924Y-92962355D01*
X157074890Y-92792524D01*
X156845000Y-92913845D01*
X156591000Y-92913845D01*
X156361110Y-92792524D01*
X155951076Y-92962355D01*
X155646739Y-93239708D01*
X155626157Y-93136235D01*
X155485809Y-92926191D01*
X155275765Y-92785843D01*
X155028000Y-92736560D01*
X153328000Y-92736560D01*
X153080235Y-92785843D01*
X152870191Y-92926191D01*
X152729843Y-93136235D01*
X152680560Y-93384000D01*
X127038545Y-93384000D01*
X127119000Y-93189766D01*
X127119000Y-92738234D01*
X126946207Y-92321074D01*
X126800133Y-92175000D01*
X163603000Y-92175000D01*
X163603000Y-100726183D01*
M02*
