%TF.GenerationSoftware,KiCad,Pcbnew,(5.0.0)*%
%TF.CreationDate,2019-11-18T15:30:06-06:00*%
%TF.ProjectId,Light-Up Hat,4C696768742D5570204861742E6B6963,rev?*%
%TF.SameCoordinates,Original*%
%TF.FileFunction,Legend,Bot*%
%TF.FilePolarity,Positive*%
%FSLAX46Y46*%
G04 Gerber Fmt 4.6, Leading zero omitted, Abs format (unit mm)*
G04 Created by KiCad (PCBNEW (5.0.0)) date 11/18/19 15:30:06*
%MOMM*%
%LPD*%
G01*
G04 APERTURE LIST*
%ADD10C,0.300000*%
%ADD11C,0.200000*%
G04 APERTURE END LIST*
D10*
X151889771Y-103801414D02*
X151473104Y-103801414D01*
X151294533Y-104456176D02*
X151889771Y-104456176D01*
X151889771Y-103206176D01*
X151294533Y-103206176D01*
X150758819Y-104456176D02*
X150758819Y-103206176D01*
X150044533Y-104456176D01*
X150044533Y-103206176D01*
X149449295Y-103979985D02*
X148496914Y-103979985D01*
X147901676Y-104456176D02*
X147901676Y-103206176D01*
X147901676Y-103801414D02*
X147187390Y-103801414D01*
X147187390Y-104456176D02*
X147187390Y-103206176D01*
X146651676Y-104099033D02*
X146056438Y-104099033D01*
X146770723Y-104456176D02*
X146354057Y-103206176D01*
X145937390Y-104456176D01*
X145699295Y-103206176D02*
X144985009Y-103206176D01*
X145342152Y-104456176D02*
X145342152Y-103206176D01*
X144568342Y-103979985D02*
X143615961Y-103979985D01*
X142306438Y-104337128D02*
X142365961Y-104396652D01*
X142544533Y-104456176D01*
X142663580Y-104456176D01*
X142842152Y-104396652D01*
X142961200Y-104277604D01*
X143020723Y-104158557D01*
X143080247Y-103920461D01*
X143080247Y-103741890D01*
X143020723Y-103503795D01*
X142961200Y-103384747D01*
X142842152Y-103265700D01*
X142663580Y-103206176D01*
X142544533Y-103206176D01*
X142365961Y-103265700D01*
X142306438Y-103325223D01*
X141770723Y-103801414D02*
X141354057Y-103801414D01*
X141175485Y-104456176D02*
X141770723Y-104456176D01*
X141770723Y-103206176D01*
X141175485Y-103206176D01*
X140639771Y-104456176D02*
X140639771Y-103206176D01*
X140342152Y-103206176D01*
X140163580Y-103265700D01*
X140044533Y-103384747D01*
X139985009Y-103503795D01*
X139925485Y-103741890D01*
X139925485Y-103920461D01*
X139985009Y-104158557D01*
X140044533Y-104277604D01*
X140163580Y-104396652D01*
X140342152Y-104456176D01*
X140639771Y-104456176D01*
X138437390Y-104456176D02*
X138437390Y-103206176D01*
X137961200Y-103206176D01*
X137842152Y-103265700D01*
X137782628Y-103325223D01*
X137723104Y-103444271D01*
X137723104Y-103622842D01*
X137782628Y-103741890D01*
X137842152Y-103801414D01*
X137961200Y-103860938D01*
X138437390Y-103860938D01*
X136473104Y-104337128D02*
X136532628Y-104396652D01*
X136711200Y-104456176D01*
X136830247Y-104456176D01*
X137008819Y-104396652D01*
X137127866Y-104277604D01*
X137187390Y-104158557D01*
X137246914Y-103920461D01*
X137246914Y-103741890D01*
X137187390Y-103503795D01*
X137127866Y-103384747D01*
X137008819Y-103265700D01*
X136830247Y-103206176D01*
X136711200Y-103206176D01*
X136532628Y-103265700D01*
X136473104Y-103325223D01*
X135520723Y-103801414D02*
X135342152Y-103860938D01*
X135282628Y-103920461D01*
X135223104Y-104039509D01*
X135223104Y-104218080D01*
X135282628Y-104337128D01*
X135342152Y-104396652D01*
X135461200Y-104456176D01*
X135937390Y-104456176D01*
X135937390Y-103206176D01*
X135520723Y-103206176D01*
X135401676Y-103265700D01*
X135342152Y-103325223D01*
X135282628Y-103444271D01*
X135282628Y-103563319D01*
X135342152Y-103682366D01*
X135401676Y-103741890D01*
X135520723Y-103801414D01*
X135937390Y-103801414D01*
X146264771Y-106631176D02*
X146681438Y-106035938D01*
X146979057Y-106631176D02*
X146979057Y-105381176D01*
X146502866Y-105381176D01*
X146383819Y-105440700D01*
X146324295Y-105500223D01*
X146264771Y-105619271D01*
X146264771Y-105797842D01*
X146324295Y-105916890D01*
X146383819Y-105976414D01*
X146502866Y-106035938D01*
X146979057Y-106035938D01*
X145729057Y-105976414D02*
X145312390Y-105976414D01*
X145133819Y-106631176D02*
X145729057Y-106631176D01*
X145729057Y-105381176D01*
X145133819Y-105381176D01*
X144776676Y-105381176D02*
X144360009Y-106631176D01*
X143943342Y-105381176D01*
X141919533Y-106631176D02*
X142633819Y-106631176D01*
X142276676Y-106631176D02*
X142276676Y-105381176D01*
X142395723Y-105559747D01*
X142514771Y-105678795D01*
X142633819Y-105738319D01*
X141383819Y-106512128D02*
X141324295Y-106571652D01*
X141383819Y-106631176D01*
X141443342Y-106571652D01*
X141383819Y-106512128D01*
X141383819Y-106631176D01*
X140550485Y-105381176D02*
X140431438Y-105381176D01*
X140312390Y-105440700D01*
X140252866Y-105500223D01*
X140193342Y-105619271D01*
X140133819Y-105857366D01*
X140133819Y-106154985D01*
X140193342Y-106393080D01*
X140252866Y-106512128D01*
X140312390Y-106571652D01*
X140431438Y-106631176D01*
X140550485Y-106631176D01*
X140669533Y-106571652D01*
X140729057Y-106512128D01*
X140788580Y-106393080D01*
X140848104Y-106154985D01*
X140848104Y-105857366D01*
X140788580Y-105619271D01*
X140729057Y-105500223D01*
X140669533Y-105440700D01*
X140550485Y-105381176D01*
X150798942Y-96177571D02*
X150798942Y-94677571D01*
X150441800Y-94677571D01*
X150227514Y-94749000D01*
X150084657Y-94891857D01*
X150013228Y-95034714D01*
X149941800Y-95320428D01*
X149941800Y-95534714D01*
X150013228Y-95820428D01*
X150084657Y-95963285D01*
X150227514Y-96106142D01*
X150441800Y-96177571D01*
X150798942Y-96177571D01*
X148727514Y-96106142D02*
X148870371Y-96177571D01*
X149156085Y-96177571D01*
X149298942Y-96106142D01*
X149370371Y-95963285D01*
X149370371Y-95391857D01*
X149298942Y-95249000D01*
X149156085Y-95177571D01*
X148870371Y-95177571D01*
X148727514Y-95249000D01*
X148656085Y-95391857D01*
X148656085Y-95534714D01*
X149370371Y-95677571D01*
X148084657Y-96106142D02*
X147941800Y-96177571D01*
X147656085Y-96177571D01*
X147513228Y-96106142D01*
X147441800Y-95963285D01*
X147441800Y-95891857D01*
X147513228Y-95749000D01*
X147656085Y-95677571D01*
X147870371Y-95677571D01*
X148013228Y-95606142D01*
X148084657Y-95463285D01*
X148084657Y-95391857D01*
X148013228Y-95249000D01*
X147870371Y-95177571D01*
X147656085Y-95177571D01*
X147513228Y-95249000D01*
X146798942Y-96177571D02*
X146798942Y-95177571D01*
X146798942Y-94677571D02*
X146870371Y-94749000D01*
X146798942Y-94820428D01*
X146727514Y-94749000D01*
X146798942Y-94677571D01*
X146798942Y-94820428D01*
X145441800Y-95177571D02*
X145441800Y-96391857D01*
X145513228Y-96534714D01*
X145584657Y-96606142D01*
X145727514Y-96677571D01*
X145941800Y-96677571D01*
X146084657Y-96606142D01*
X145441800Y-96106142D02*
X145584657Y-96177571D01*
X145870371Y-96177571D01*
X146013228Y-96106142D01*
X146084657Y-96034714D01*
X146156085Y-95891857D01*
X146156085Y-95463285D01*
X146084657Y-95320428D01*
X146013228Y-95249000D01*
X145870371Y-95177571D01*
X145584657Y-95177571D01*
X145441800Y-95249000D01*
X144727514Y-95177571D02*
X144727514Y-96177571D01*
X144727514Y-95320428D02*
X144656085Y-95249000D01*
X144513228Y-95177571D01*
X144298942Y-95177571D01*
X144156085Y-95249000D01*
X144084657Y-95391857D01*
X144084657Y-96177571D01*
X142798942Y-96106142D02*
X142941800Y-96177571D01*
X143227514Y-96177571D01*
X143370371Y-96106142D01*
X143441800Y-95963285D01*
X143441800Y-95391857D01*
X143370371Y-95249000D01*
X143227514Y-95177571D01*
X142941800Y-95177571D01*
X142798942Y-95249000D01*
X142727514Y-95391857D01*
X142727514Y-95534714D01*
X143441800Y-95677571D01*
X141441800Y-96177571D02*
X141441800Y-94677571D01*
X141441800Y-96106142D02*
X141584657Y-96177571D01*
X141870371Y-96177571D01*
X142013228Y-96106142D01*
X142084657Y-96034714D01*
X142156085Y-95891857D01*
X142156085Y-95463285D01*
X142084657Y-95320428D01*
X142013228Y-95249000D01*
X141870371Y-95177571D01*
X141584657Y-95177571D01*
X141441800Y-95249000D01*
X139584657Y-96177571D02*
X139584657Y-94677571D01*
X139584657Y-95249000D02*
X139441800Y-95177571D01*
X139156085Y-95177571D01*
X139013228Y-95249000D01*
X138941800Y-95320428D01*
X138870371Y-95463285D01*
X138870371Y-95891857D01*
X138941800Y-96034714D01*
X139013228Y-96106142D01*
X139156085Y-96177571D01*
X139441800Y-96177571D01*
X139584657Y-96106142D01*
X138370371Y-95177571D02*
X138013228Y-96177571D01*
X137656085Y-95177571D02*
X138013228Y-96177571D01*
X138156085Y-96534714D01*
X138227514Y-96606142D01*
X138370371Y-96677571D01*
X137084657Y-96034714D02*
X137013228Y-96106142D01*
X137084657Y-96177571D01*
X137156085Y-96106142D01*
X137084657Y-96034714D01*
X137084657Y-96177571D01*
X137084657Y-95249000D02*
X137013228Y-95320428D01*
X137084657Y-95391857D01*
X137156085Y-95320428D01*
X137084657Y-95249000D01*
X137084657Y-95391857D01*
X152298942Y-98584714D02*
X152370371Y-98656142D01*
X152584657Y-98727571D01*
X152727514Y-98727571D01*
X152941800Y-98656142D01*
X153084657Y-98513285D01*
X153156085Y-98370428D01*
X153227514Y-98084714D01*
X153227514Y-97870428D01*
X153156085Y-97584714D01*
X153084657Y-97441857D01*
X152941800Y-97299000D01*
X152727514Y-97227571D01*
X152584657Y-97227571D01*
X152370371Y-97299000D01*
X152298942Y-97370428D01*
X151656085Y-98727571D02*
X151656085Y-97227571D01*
X151013228Y-98727571D02*
X151013228Y-97941857D01*
X151084657Y-97799000D01*
X151227514Y-97727571D01*
X151441800Y-97727571D01*
X151584657Y-97799000D01*
X151656085Y-97870428D01*
X150298942Y-98727571D02*
X150298942Y-97727571D01*
X150298942Y-98013285D02*
X150227514Y-97870428D01*
X150156085Y-97799000D01*
X150013228Y-97727571D01*
X149870371Y-97727571D01*
X149370371Y-98727571D02*
X149370371Y-97727571D01*
X149370371Y-97227571D02*
X149441800Y-97299000D01*
X149370371Y-97370428D01*
X149298942Y-97299000D01*
X149370371Y-97227571D01*
X149370371Y-97370428D01*
X148727514Y-98656142D02*
X148584657Y-98727571D01*
X148298942Y-98727571D01*
X148156085Y-98656142D01*
X148084657Y-98513285D01*
X148084657Y-98441857D01*
X148156085Y-98299000D01*
X148298942Y-98227571D01*
X148513228Y-98227571D01*
X148656085Y-98156142D01*
X148727514Y-98013285D01*
X148727514Y-97941857D01*
X148656085Y-97799000D01*
X148513228Y-97727571D01*
X148298942Y-97727571D01*
X148156085Y-97799000D01*
X147656085Y-97727571D02*
X147084657Y-97727571D01*
X147441800Y-97227571D02*
X147441800Y-98513285D01*
X147370371Y-98656142D01*
X147227514Y-98727571D01*
X147084657Y-98727571D01*
X146584657Y-98727571D02*
X146584657Y-97727571D01*
X146584657Y-97227571D02*
X146656085Y-97299000D01*
X146584657Y-97370428D01*
X146513228Y-97299000D01*
X146584657Y-97227571D01*
X146584657Y-97370428D01*
X145227514Y-98727571D02*
X145227514Y-97941857D01*
X145298942Y-97799000D01*
X145441800Y-97727571D01*
X145727514Y-97727571D01*
X145870371Y-97799000D01*
X145227514Y-98656142D02*
X145370371Y-98727571D01*
X145727514Y-98727571D01*
X145870371Y-98656142D01*
X145941800Y-98513285D01*
X145941800Y-98370428D01*
X145870371Y-98227571D01*
X145727514Y-98156142D01*
X145370371Y-98156142D01*
X145227514Y-98084714D01*
X144513228Y-97727571D02*
X144513228Y-98727571D01*
X144513228Y-97870428D02*
X144441800Y-97799000D01*
X144298942Y-97727571D01*
X144084657Y-97727571D01*
X143941800Y-97799000D01*
X143870371Y-97941857D01*
X143870371Y-98727571D01*
X142013228Y-98727571D02*
X142013228Y-97227571D01*
X141156085Y-98727571D02*
X141798942Y-97870428D01*
X141156085Y-97227571D02*
X142013228Y-98084714D01*
X140513228Y-98727571D02*
X140513228Y-97727571D01*
X140513228Y-98013285D02*
X140441800Y-97870428D01*
X140370371Y-97799000D01*
X140227514Y-97727571D01*
X140084657Y-97727571D01*
X138941800Y-98727571D02*
X138941800Y-97941857D01*
X139013228Y-97799000D01*
X139156085Y-97727571D01*
X139441800Y-97727571D01*
X139584657Y-97799000D01*
X138941800Y-98656142D02*
X139084657Y-98727571D01*
X139441800Y-98727571D01*
X139584657Y-98656142D01*
X139656085Y-98513285D01*
X139656085Y-98370428D01*
X139584657Y-98227571D01*
X139441800Y-98156142D01*
X139084657Y-98156142D01*
X138941800Y-98084714D01*
X138227514Y-98727571D02*
X138227514Y-97727571D01*
X138227514Y-97870428D02*
X138156085Y-97799000D01*
X138013228Y-97727571D01*
X137798942Y-97727571D01*
X137656085Y-97799000D01*
X137584657Y-97941857D01*
X137584657Y-98727571D01*
X137584657Y-97941857D02*
X137513228Y-97799000D01*
X137370371Y-97727571D01*
X137156085Y-97727571D01*
X137013228Y-97799000D01*
X136941800Y-97941857D01*
X136941800Y-98727571D01*
X135656085Y-98656142D02*
X135798942Y-98727571D01*
X136084657Y-98727571D01*
X136227514Y-98656142D01*
X136298942Y-98513285D01*
X136298942Y-97941857D01*
X136227514Y-97799000D01*
X136084657Y-97727571D01*
X135798942Y-97727571D01*
X135656085Y-97799000D01*
X135584657Y-97941857D01*
X135584657Y-98084714D01*
X136298942Y-98227571D01*
X134941800Y-98727571D02*
X134941800Y-97727571D01*
X134941800Y-98013285D02*
X134870371Y-97870428D01*
X134798942Y-97799000D01*
X134656085Y-97727571D01*
X134513228Y-97727571D01*
D11*
X124460000Y-111506000D02*
X124460000Y-91440000D01*
X164338000Y-111506000D02*
X124460000Y-111506000D01*
X164338000Y-91440000D02*
X164338000Y-111506000D01*
X124460000Y-91440000D02*
X164338000Y-91440000D01*
M02*
